#!OML:ASF E:/inclinewalkrobotboard/Project1/Captureday1/Session1/subject1.ASF
:FULLY-SPECIFIED
:DEGREES
338
root 0 0 0 -0.3817640971760512 -2.0380939306804953 -3.8929854637716117
lowerback 16.57407890648726 1.0856170756548977 -0.13108500021251424
upperback 0.6249827782848961 1.4198642879827998 0.3192333619487059
thorax -8.692145791630017 0.6713965848852624 0.048296668943249466
lowerneck -7.480415695370936 -3.2495364977291588 1.3587338963052282
upperneck -6.373338961012511 -4.206868111654326 1.6851698609285368
head -0.8572785905408153 -2.1883298275275833 0.22105536923277755
rclavicle -3.8080966010385697E-16 1.984730603833857E-17
rhumerus 12.126102854542381 0.5723173326371853 -39.394869716818114
rradius 118.93112061939416
rwrist -30.868888652235803
rhand -11.648029759315294 -36.755294874612424
rfingers 7.125019999999965
rthumb 14.43356906964533 -66.16502541143882
lclavicle -3.8087506661023105E-16 -4.442583517532499E-16
lhumerus -43.57580122873563 -0.37748077263842483 83.18810051054054
lradius 45.588615065918624
lwrist 1.816536817159521
lhand -15.32339333512004 -13.029694513287867
lfingers 7.12501999999994
lthumb 10.805394563205278 16.141139706172666
rfemur -2.6838607330569486 0.9975835430457118 5.364574887865869
rtibia 8.037538221254232
rfoot -1.5112455416974844 -1.3078762082167028
rtoes 0.7681694305281646
lfemur -6.46909931827625 -3.602145594175889 -12.138973043430504
ltibia 27.315501535319118
lfoot -19.445060007581894 8.124951907552722
ltoes -43.82040201920263
339
root 0 0 0 -0.3817206603666752 -2.038153499502041 -3.8930776875930544
lowerback 16.57461205881814 1.0855067570645205 -0.13116721566820466
upperback 0.6245476483854246 1.4197015990842916 0.3191591453436421
thorax -8.69288010471116 0.6713104779819088 0.048257485672016376
lowerneck -7.480570546419685 -3.2494376037479515 1.3591667236035234
upperneck -6.377127542418471 -4.206661948622388 1.6847584143747618
head -0.8585145044157443 -2.1882844160700547 0.2209114255345613
rclavicle -3.8081474120700556E-16 1.986828969858313E-17
rhumerus 12.126346618077996 0.5728932098463382 -39.39449686880563
rradius 118.93239519035471
rwrist -30.869450127063644
rhand -11.647783950373485 -36.756738148614886
rfingers 7.125019999999965
rthumb 14.43380111733355 -66.16642330801527
lclavicle -3.806795002353113E-16 -4.441172311127182E-16
lhumerus -43.57752169286719 -0.37739276571421543 83.18837173667178
lradius 45.590942772089704
lwrist 1.8155989712279081
lhand -15.321468544415026 -13.03577005021023
lfingers 7.12501999999994
lthumb 10.807225869679499 16.135300972248167
rfemur -2.683180987306822 0.997321353188426 5.363195783745148
rtibia 8.035516795458777
rfoot -1.5108469788961965 -1.3075325348752713
rtoes 0.7679669669426115
lfemur -6.468817342917634 -3.602342075971252 -12.138381647349501
ltibia 27.314940792090198
lfoot -19.44615392756706 8.125900341400431
ltoes -43.82356166786988
340
root 0 0 0 -0.3816771751778698 -2.038213078849065 -3.89317022813653
lowerback 16.575144717526534 1.0853967217077658 -0.13124917871714303
upperback 0.6241119995927358 1.4195393247688446 0.31908478723287226
thorax -8.693614644376726 0.6712245625886626 0.048217954986745304
lowerneck -7.480725845078147 -3.249338921513584 1.3595993888274491
upperneck -6.380916136275147 -4.2064562266851535 1.684347449155385
head -0.8597503615673769 -2.1882391538809696 0.22076762679142808
rclavicle -3.8081970397578826E-16 1.9889313449745773E-17
rhumerus 12.126588553656305 0.573471201019041 -39.39412484392376
rradius 118.93367069848989
rwrist -30.870012176585696
rhand -11.64753707755062 -36.75818597862588
rfingers 7.125019999999965
rthumb 14.434034170508891 -66.16782560306929
lclavicle -3.8048352547454606E-16 -4.4397577506367793E-16
lhumerus -43.57924603401342 -0.3773045875110548 83.18864356050148
lradius 45.593275728687416
lwrist 1.814659045451134
lhand -15.319539461011429 -13.041859236283699
lfingers 7.125019999999941
lthumb 10.809061273914885 16.1294491420965
rfemur -2.6824996050257273 0.997058515877564 5.3618132986708655
rtibia 8.033490460306297
rfoot -1.510447427345666 -1.3071880277354881
rtoes 0.7677639981863036
lfemur -6.4685346420304946 -3.6025390406032582 -12.137788845682532
ltibia 27.31437867437458
lfoot -19.447250486173985 8.126851049899296
ltoes -43.82672888922238
341
root 0 0 0 -0.3816336366740771 -2.0382726753920224 -3.8932630971336217
lowerback 16.575676942902295 1.0852869585623948 -0.1313308977347759
upperback 0.6236757806880872 1.4193774487446822 0.319010278420397
thorax -8.694349495650131 0.6711388299371229 0.04817807076420544
lowerneck -7.480881610805582 -3.2492404413278098 1.360031940038731
upperneck -6.384705175923191 -4.20625092509778 1.6839369211273187
head -0.8609863031053369 -2.1881940368367374 0.2206239574502098
rclavicle -3.808245488350258E-16 1.991037964798595E-17
rhumerus 12.126828684665632 0.5740513736069506 -39.39375360266527
rradius 118.93494728629426
rwrist -30.870574863721448
rhand -11.647289111684252 -36.75963853279592
rfingers 7.125019999999965
rthumb 14.434268256703914 -66.16923245940937
lclavicle -3.802871187606553E-16 -4.4383396665141294E-16
lhumerus -43.58097445721073 -0.3772162270536821 83.18891601448593
lradius 45.5956142120255
lwrist 1.813716927484216
lhand -15.317605855766988 -13.047962795152616
lfingers 7.125019999999941
lthumb 10.810900994107968 16.123583520217693
rfemur -2.68181650511362 0.9967949997785339 5.360427267927971
rtibia 8.031458974541861
rfoot -1.5100468394074893 -1.30684264577431
rtoes 0.7675605000540087
lfemur -6.468251181726085 -3.602736511637746 -12.137194567729669
ltibia 27.313815114989595
lfoot -19.448349814313307 8.127804146510169
ltoes -43.82990406114818
